<svg xmlns="http://www.w3.org/2000/svg" width="103.74000000000001" height="35" viewBox="0 0 103.74000000000001 35"><rect class="svg__rect" x="0" y="0" width="47.88" height="35" fill="#31C4F3"/><rect class="svg__rect" x="45.88" y="0" width="57.86000000000001" height="35" fill="#389AD5"/><path class="svg__text" d="M15.69 22L14.22 22L14.22 13.47L16.14 13.47L18.60 20.01L21.06 13.47L22.97 13.47L22.97 22L21.49 22L21.49 19.19L21.64 15.43L19.12 22L18.06 22L15.55 15.43L15.69 19.19L15.69 22ZM29.75 18.86L26.89 13.47L28.53 13.47L30.49 17.51L32.46 13.47L34.10 13.47L31.24 18.86L31.24 22L29.75 22L29.75 18.86Z" fill="#FFFFFF"/><path class="svg__text" d="M59.48 21.24L59.48 21.24L60.26 19.49Q60.82 19.86 61.57 20.09Q62.31 20.32 63.03 20.32L63.03 20.32Q64.40 20.32 64.40 19.64L64.40 19.64Q64.40 19.28 64.01 19.11Q63.62 18.93 62.76 18.74L62.76 18.74Q61.81 18.53 61.17 18.30Q60.54 18.06 60.08 17.55Q59.63 17.03 59.63 16.16L59.63 16.16Q59.63 15.39 60.05 14.77Q60.47 14.15 61.30 13.79Q62.14 13.43 63.34 13.43L63.34 13.43Q64.17 13.43 64.98 13.62Q65.78 13.80 66.40 14.17L66.40 14.17L65.66 15.93Q64.46 15.28 63.33 15.28L63.33 15.28Q62.62 15.28 62.30 15.49Q61.98 15.70 61.98 16.04L61.98 16.04Q61.98 16.37 62.36 16.54Q62.75 16.71 63.60 16.89L63.60 16.89Q64.56 17.10 65.19 17.33Q65.82 17.56 66.28 18.07Q66.74 18.58 66.74 19.46L66.74 19.46Q66.74 20.21 66.32 20.83Q65.90 21.44 65.06 21.80Q64.22 22.17 63.02 22.17L63.02 22.17Q62.00 22.17 61.04 21.92Q60.08 21.67 59.48 21.24ZM70.89 17.80L70.89 17.80Q70.89 16.55 71.49 15.55Q72.10 14.56 73.16 14.00Q74.22 13.43 75.55 13.43L75.55 13.43Q76.88 13.43 77.95 14.00Q79.01 14.56 79.62 15.55Q80.22 16.55 80.22 17.80L80.22 17.80Q80.22 19.22 79.45 20.30Q78.68 21.39 77.37 21.85L77.37 21.85Q77.61 22.12 77.84 22.23Q78.07 22.33 78.35 22.33L78.35 22.33Q79.06 22.33 79.63 21.75L79.63 21.75L80.66 22.97Q80.24 23.49 79.63 23.76Q79.02 24.03 78.30 24.03L78.30 24.03Q77.60 24.03 77.04 23.85Q76.48 23.67 75.91 23.25Q75.34 22.84 74.63 22.09L74.63 22.09Q73.54 21.91 72.69 21.31Q71.83 20.72 71.36 19.81Q70.89 18.89 70.89 17.80ZM73.29 17.80L73.29 17.80Q73.29 18.51 73.59 19.05Q73.89 19.60 74.41 19.90Q74.92 20.20 75.55 20.20L75.55 20.20Q76.19 20.20 76.71 19.90Q77.22 19.60 77.52 19.05Q77.82 18.51 77.82 17.80L77.82 17.80Q77.82 17.09 77.52 16.54Q77.22 16 76.71 15.70Q76.19 15.40 75.55 15.40L75.55 15.40Q74.92 15.40 74.40 15.70Q73.89 16 73.59 16.54Q73.29 17.09 73.29 17.80ZM91.34 22L84.95 22L84.95 13.60L87.33 13.60L87.33 20.11L91.34 20.11L91.34 22Z" fill="#FFFFFF" x="58.88"/></svg>