<svg xmlns="http://www.w3.org/2000/svg" width="127.36" height="35" viewBox="0 0 127.36 35"><rect class="svg__rect" x="0" y="0" width="86.9" height="35" fill="#000000"/><rect class="svg__rect" x="84.9" y="0" width="42.459999999999994" height="35" fill="#000000"/><path class="svg__text" d="M13.78 19.42L13.78 19.42L15.27 19.42Q15.27 20.15 15.75 20.55Q16.23 20.95 17.12 20.95L17.12 20.95Q17.90 20.95 18.29 20.63Q18.68 20.32 18.68 19.80L18.68 19.80Q18.68 19.24 18.28 18.94Q17.89 18.63 16.85 18.32Q15.82 18.01 15.21 17.63L15.21 17.63Q14.05 16.90 14.05 15.72L14.05 15.72Q14.05 14.69 14.89 14.02Q15.73 13.35 17.07 13.35L17.07 13.35Q17.96 13.35 18.66 13.68Q19.36 14.01 19.75 14.61Q20.15 15.22 20.15 15.96L20.15 15.96L18.68 15.96Q18.68 15.29 18.26 14.91Q17.84 14.54 17.06 14.54L17.06 14.54Q16.33 14.54 15.93 14.85Q15.53 15.16 15.53 15.71L15.53 15.71Q15.53 16.18 15.96 16.50Q16.40 16.81 17.39 17.10Q18.39 17.40 18.99 17.78Q19.60 18.16 19.88 18.65Q20.16 19.13 20.16 19.79L20.16 19.79Q20.16 20.86 19.34 21.49Q18.52 22.12 17.12 22.12L17.12 22.12Q16.20 22.12 15.42 21.77Q14.64 21.43 14.21 20.83Q13.78 20.22 13.78 19.42ZM24.18 18.00L24.18 18.00L24.18 17.52Q24.18 16.28 24.62 15.32Q25.06 14.37 25.87 13.86Q26.67 13.35 27.72 13.35Q28.76 13.35 29.57 13.85Q30.37 14.35 30.81 15.29Q31.25 16.23 31.26 17.48L31.26 17.48L31.26 17.96Q31.26 19.21 30.82 20.16Q30.39 21.10 29.58 21.61Q28.78 22.12 27.73 22.12L27.73 22.12Q26.69 22.12 25.88 21.61Q25.07 21.10 24.63 20.17Q24.18 19.23 24.18 18.00ZM25.66 17.46L25.66 17.96Q25.66 19.36 26.21 20.13Q26.76 20.90 27.73 20.90L27.73 20.90Q28.71 20.90 29.24 20.15Q29.77 19.40 29.77 17.96L29.77 17.96L29.77 17.51Q29.77 16.09 29.24 15.34Q28.70 14.58 27.72 14.58L27.72 14.58Q26.76 14.58 26.21 15.33Q25.67 16.09 25.66 17.46L25.66 17.46ZM35.45 18.19L35.45 18.19L35.45 17.39Q35.45 16.19 35.88 15.27Q36.31 14.35 37.11 13.85Q37.91 13.35 38.96 13.35L38.96 13.35Q40.37 13.35 41.23 14.12Q42.09 14.89 42.23 16.29L42.23 16.29L40.75 16.29Q40.65 15.37 40.22 14.96Q39.79 14.55 38.96 14.55L38.96 14.55Q37.99 14.55 37.47 15.26Q36.95 15.96 36.94 17.33L36.94 17.33L36.94 18.09Q36.94 19.47 37.43 20.20Q37.93 20.92 38.89 20.92L38.89 20.92Q39.76 20.92 40.20 20.53Q40.64 20.14 40.75 19.22L40.75 19.22L42.23 19.22Q42.10 20.59 41.22 21.35Q40.34 22.12 38.89 22.12L38.89 22.12Q37.87 22.12 37.09 21.63Q36.31 21.15 35.89 20.26Q35.47 19.37 35.45 18.19ZM48.03 22L46.54 22L46.54 13.47L48.03 13.47L48.03 17.47L48.85 16.46L51.34 13.47L53.14 13.47L49.97 17.25L53.32 22L51.56 22L48.99 18.31L48.03 19.34L48.03 22ZM62.67 22L57.10 22L57.10 13.47L62.63 13.47L62.63 14.66L58.58 14.66L58.58 17.02L62.08 17.02L62.08 18.19L58.58 18.19L58.58 20.82L62.67 20.82L62.67 22ZM68.55 14.66L65.91 14.66L65.91 13.47L72.68 13.47L72.68 14.66L70.02 14.66L70.02 22L68.55 22L68.55 14.66Z" fill="#FFFFFF"/><path class="svg__text" d="M101.47 22L99.09 22L99.09 13.60L101.47 13.60L101.47 22ZM106.21 17.80L106.21 17.80Q106.21 16.55 106.82 15.55Q107.42 14.56 108.48 14.00Q109.55 13.43 110.88 13.43L110.88 13.43Q112.21 13.43 113.27 14.00Q114.33 14.56 114.94 15.55Q115.55 16.55 115.55 17.80L115.55 17.80Q115.55 19.05 114.94 20.04Q114.33 21.04 113.27 21.60Q112.21 22.17 110.88 22.17L110.88 22.17Q109.55 22.17 108.48 21.60Q107.42 21.04 106.82 20.04Q106.21 19.05 106.21 17.80ZM108.61 17.80L108.61 17.80Q108.61 18.51 108.91 19.05Q109.21 19.60 109.73 19.90Q110.24 20.20 110.88 20.20L110.88 20.20Q111.52 20.20 112.03 19.90Q112.55 19.60 112.85 19.05Q113.14 18.51 113.14 17.80L113.14 17.80Q113.14 17.09 112.85 16.54Q112.55 16 112.03 15.70Q111.52 15.40 110.88 15.40L110.88 15.40Q110.24 15.40 109.73 15.70Q109.21 16 108.91 16.54Q108.61 17.09 108.61 17.80Z" fill="#FFFFFF" x="97.9"/></svg>